<svg width="32" height="32" viewBox="0 0 32 32" fill="none" xmlns="http://www.w3.org/2000/svg">
<g clip-path="url(#clip0_18_2989)">
<path d="M6.66667 16H4L16 4L28 16H25.3333" stroke="#343434" stroke-width="2.66667" stroke-linecap="round" stroke-linejoin="round"/>
<path d="M6.66797 16V25.3333C6.66797 26.0406 6.94892 26.7189 7.44902 27.219C7.94911 27.719 8.62739 28 9.33464 28H22.668C23.3752 28 24.0535 27.719 24.5536 27.219C25.0537 26.7189 25.3346 26.0406 25.3346 25.3333V16" stroke="#343434" stroke-width="2.66667" stroke-linecap="round" stroke-linejoin="round"/>
<path d="M12 28V20C12 19.2928 12.281 18.6145 12.781 18.1144C13.2811 17.6143 13.9594 17.3334 14.6667 17.3334H17.3333C18.0406 17.3334 18.7189 17.6143 19.219 18.1144C19.719 18.6145 20 19.2928 20 20V28" stroke="#343434" stroke-width="2.66667" stroke-linecap="round" stroke-linejoin="round"/>
</g>
<defs>
<clipPath id="clip0_18_2989">
<rect width="32" height="32" fill="white"/>
</clipPath>
</defs>
</svg>
