<svg width="40" height="40" viewBox="0 0 40 40" fill="none" xmlns="http://www.w3.org/2000/svg">
<path d="M8.33203 8.33333C8.33203 7.44928 8.68322 6.60143 9.30834 5.97631C9.93346 5.35119 10.7813 5 11.6654 5H28.332C29.2161 5 30.0639 5.35119 30.6891 5.97631C31.3142 6.60143 31.6654 7.44928 31.6654 8.33333V11.6667C31.6654 12.5507 31.3142 13.3986 30.6891 14.0237C30.0639 14.6488 29.2161 15 28.332 15H11.6654C10.7813 15 9.93346 14.6488 9.30834 14.0237C8.68322 13.3986 8.33203 12.5507 8.33203 11.6667V8.33333Z" stroke="#343434" stroke-width="3.33333" stroke-linecap="round" stroke-linejoin="round"/>
<path d="M31.6667 10H33.3333C34.2174 10 35.0652 10.3512 35.6904 10.9763C36.3155 11.6014 36.6667 12.4493 36.6667 13.3333C36.6667 15.5435 35.7887 17.6631 34.2259 19.2259C32.6631 20.7887 30.5435 21.6667 28.3333 21.6667H20V25" stroke="#343434" stroke-width="3.33333" stroke-linecap="round" stroke-linejoin="round"/>
<path d="M16.6641 26.6667C16.6641 26.2246 16.8397 25.8007 17.1522 25.4882C17.4648 25.1756 17.8887 25 18.3307 25H21.6641C22.1061 25 22.53 25.1756 22.8426 25.4882C23.1551 25.8007 23.3307 26.2246 23.3307 26.6667V33.3333C23.3307 33.7754 23.1551 34.1993 22.8426 34.5118C22.53 34.8244 22.1061 35 21.6641 35H18.3307C17.8887 35 17.4648 34.8244 17.1522 34.5118C16.8397 34.1993 16.6641 33.7754 16.6641 33.3333V26.6667Z" stroke="#343434" stroke-width="3.33333" stroke-linecap="round" stroke-linejoin="round"/>
</svg>
