<svg width="24" height="25" viewBox="0 0 24 25" fill="none" xmlns="http://www.w3.org/2000/svg">
<g clip-path="url(#clip0_18_3871)">
<path d="M3 21.5L4.65 17.7C3.38766 15.908 2.82267 13.717 3.06104 11.5381C3.29942 9.35915 4.32479 7.34211 5.94471 5.86549C7.56463 4.38887 9.66775 3.55418 11.8594 3.51807C14.051 3.48195 16.1805 4.2469 17.8482 5.66934C19.5159 7.09179 20.6071 9.07395 20.9172 11.2438C21.2272 13.4137 20.7347 15.6222 19.5321 17.4547C18.3295 19.2873 16.4994 20.618 14.3854 21.1971C12.2713 21.7762 10.0186 21.5639 8.05 20.6L3 21.5Z" stroke="white" stroke-width="2" stroke-linecap="round" stroke-linejoin="round"/>
<path d="M9 10.4998C9 10.6324 9.05268 10.7595 9.14645 10.8533C9.24021 10.9471 9.36739 10.9998 9.5 10.9998C9.63261 10.9998 9.75979 10.9471 9.85355 10.8533C9.94732 10.7595 10 10.6324 10 10.4998V9.49976C10 9.36715 9.94732 9.23997 9.85355 9.1462C9.75979 9.05243 9.63261 8.99976 9.5 8.99976C9.36739 8.99976 9.24021 9.05243 9.14645 9.1462C9.05268 9.23997 9 9.36715 9 9.49976V10.4998ZM9 10.4998C9 11.8258 9.52678 13.0976 10.4645 14.0353C11.4021 14.973 12.6739 15.4998 14 15.4998M14 15.4998H15C15.1326 15.4998 15.2598 15.4471 15.3536 15.3533C15.4473 15.2595 15.5 15.1324 15.5 14.9998C15.5 14.8671 15.4473 14.74 15.3536 14.6462C15.2598 14.5524 15.1326 14.4998 15 14.4998H14C13.8674 14.4998 13.7402 14.5524 13.6464 14.6462C13.5527 14.74 13.5 14.8671 13.5 14.9998C13.5 15.1324 13.5527 15.2595 13.6464 15.3533C13.7402 15.4471 13.8674 15.4998 14 15.4998Z" stroke="white" stroke-width="2" stroke-linecap="round" stroke-linejoin="round"/>
</g>
<defs>
<clipPath id="clip0_18_3871">
<rect width="24" height="24" fill="white" transform="translate(0 0.5)"/>
</clipPath>
</defs>
</svg>
