<svg width="102" height="228" viewBox="0 0 102 228" fill="none" xmlns="http://www.w3.org/2000/svg">
<path d="M26.6282 216.83L48.8965 216.83M37.7623 205.696L37.7623 227.964L37.7623 205.696Z" stroke="#E3E3E3" stroke-width="1.15" stroke-miterlimit="10"/>
<path d="M79.7317 216.83L102 216.83M90.8658 205.696L90.8658 227.964L90.8658 205.696Z" stroke="#E3E3E3" stroke-width="1.15" stroke-miterlimit="10"/>
<path d="M26.6282 216.83L48.8965 216.83M37.7623 205.696L37.7623 227.964L37.7623 205.696Z" stroke="#E3E3E3" stroke-width="2.3" stroke-miterlimit="10"/>
<path d="M79.7317 216.83L102 216.83M90.8658 205.696L90.8658 227.964L90.8658 205.696Z" stroke="#E3E3E3" stroke-width="2.3" stroke-miterlimit="10"/>
<path d="M26.6282 165.442L48.8965 165.442M37.7623 154.308L37.7623 176.576L37.7623 154.308Z" stroke="#E3E3E3" stroke-width="1.15" stroke-miterlimit="10"/>
<path d="M79.7317 165.442L102 165.442M90.8658 154.308L90.8658 176.576L90.8658 154.308Z" stroke="#E3E3E3" stroke-width="1.15" stroke-miterlimit="10"/>
<path d="M26.6282 165.442L48.8965 165.442M37.7623 154.308L37.7623 176.576L37.7623 154.308Z" stroke="#E3E3E3" stroke-width="2.3" stroke-miterlimit="10"/>
<path d="M79.7317 165.442L102 165.442M90.8658 154.308L90.8658 176.576L90.8658 154.308Z" stroke="#E3E3E3" stroke-width="2.3" stroke-miterlimit="10"/>
<path d="M26.6282 114.053L48.8965 114.053M37.7623 102.919L37.7623 125.187L37.7623 102.919Z" stroke="#E3E3E3" stroke-width="1.15" stroke-miterlimit="10"/>
<path d="M79.7317 114.052L102 114.052M90.8658 102.918L90.8658 125.186L90.8658 102.918Z" stroke="#E3E3E3" stroke-width="1.15" stroke-miterlimit="10"/>
<path d="M26.6282 114.053L48.8965 114.053M37.7623 102.919L37.7623 125.187L37.7623 102.919Z" stroke="#E3E3E3" stroke-width="2.3" stroke-miterlimit="10"/>
<path d="M79.7317 114.052L102 114.052M90.8658 102.918L90.8658 125.186L90.8658 102.918Z" stroke="#E3E3E3" stroke-width="2.3" stroke-miterlimit="10"/>
<path d="M26.6282 62.6649L48.8965 62.6649M37.7623 51.5308L37.7623 73.7991L37.7623 51.5308Z" stroke="#E3E3E3" stroke-width="1.15" stroke-miterlimit="10"/>
<path d="M79.7317 62.6649L102 62.6649M90.8658 51.5308L90.8658 73.7991L90.8658 51.5308Z" stroke="#E3E3E3" stroke-width="1.15" stroke-miterlimit="10"/>
<path d="M26.6282 62.6649L48.8965 62.6649M37.7623 51.5308L37.7623 73.7991L37.7623 51.5308Z" stroke="#E3E3E3" stroke-width="2.3" stroke-miterlimit="10"/>
<path d="M79.7317 62.6649L102 62.6649M90.8658 51.5308L90.8658 73.7991L90.8658 51.5308Z" stroke="#E3E3E3" stroke-width="2.3" stroke-miterlimit="10"/>
<path d="M26.6282 11.2762L48.8965 11.2762M37.7623 0.142079L37.7623 22.4104L37.7623 0.142079Z" stroke="#E3E3E3" stroke-width="1.15" stroke-miterlimit="10"/>
<path d="M79.7317 11.2762L102 11.2762M90.8658 0.142079L90.8658 22.4104L90.8658 0.142079Z" stroke="#E3E3E3" stroke-width="1.15" stroke-miterlimit="10"/>
<path d="M26.6282 11.2762L48.8965 11.2762M37.7623 0.142079L37.7623 22.4104L37.7623 0.142079Z" stroke="#E3E3E3" stroke-width="2.3" stroke-miterlimit="10"/>
<path d="M79.7317 11.2762L102 11.2762M90.8658 0.142079L90.8658 22.4104L90.8658 0.142079Z" stroke="#E3E3E3" stroke-width="2.3" stroke-miterlimit="10"/>
<path d="M25.9153 216.83L48.1836 216.83M37.0494 205.696L37.0494 227.964L37.0494 205.696Z" stroke="#E3E3E3" stroke-width="1.15" stroke-miterlimit="10"/>
<path d="M25.9153 216.83L48.1836 216.83M37.0494 205.696L37.0494 227.964L37.0494 205.696Z" stroke="#E3E3E3" stroke-width="2.3" stroke-miterlimit="10"/>
<path d="M25.9153 165.442L48.1836 165.442M37.0494 154.308L37.0494 176.576L37.0494 154.308Z" stroke="#E3E3E3" stroke-width="1.15" stroke-miterlimit="10"/>
<path d="M25.9153 165.442L48.1836 165.442M37.0494 154.308L37.0494 176.576L37.0494 154.308Z" stroke="#E3E3E3" stroke-width="2.3" stroke-miterlimit="10"/>
<path d="M25.9153 114.052L48.1836 114.052M37.0494 102.918L37.0494 125.186L37.0494 102.918Z" stroke="#E3E3E3" stroke-width="1.15" stroke-miterlimit="10"/>
<path d="M25.9153 114.052L48.1836 114.052M37.0494 102.918L37.0494 125.186L37.0494 102.918Z" stroke="#E3E3E3" stroke-width="2.3" stroke-miterlimit="10"/>
<path d="M25.9153 62.6649L48.1836 62.6649M37.0494 51.5308L37.0494 73.7991L37.0494 51.5308Z" stroke="#E3E3E3" stroke-width="1.15" stroke-miterlimit="10"/>
<path d="M25.9153 62.6649L48.1836 62.6649M37.0494 51.5308L37.0494 73.7991L37.0494 51.5308Z" stroke="#E3E3E3" stroke-width="2.3" stroke-miterlimit="10"/>
<path d="M25.9153 11.2762L48.1836 11.2762M37.0494 0.142079L37.0494 22.4104L37.0494 0.142079Z" stroke="#E3E3E3" stroke-width="1.15" stroke-miterlimit="10"/>
<path d="M25.9153 11.2762L48.1836 11.2762M37.0494 0.142079L37.0494 22.4104L37.0494 0.142079Z" stroke="#E3E3E3" stroke-width="2.3" stroke-miterlimit="10"/>
</svg>
