<svg width="47" height="184" viewBox="0 0 47 184" fill="none" xmlns="http://www.w3.org/2000/svg">
<path d="M35.6888 108.628L35.6888 130.896M46.823 119.762L24.5547 119.762L46.823 119.762Z" stroke="#E3E3E3" stroke-width="1.15" stroke-miterlimit="10"/>
<path d="M35.6888 161.732L35.6888 184M46.823 172.866L24.5547 172.866L46.823 172.866Z" stroke="#E3E3E3" stroke-width="1.15" stroke-miterlimit="10"/>
<path d="M35.6888 108.628L35.6888 130.896M46.823 119.762L24.5547 119.762L46.823 119.762Z" stroke="#E3E3E3" stroke-width="2.3" stroke-miterlimit="10"/>
<path d="M35.6888 161.732L35.6888 184M46.823 172.866L24.5547 172.866L46.823 172.866Z" stroke="#E3E3E3" stroke-width="2.3" stroke-miterlimit="10"/>
<path d="M35.6888 54.8147L35.6888 77.083M46.823 65.9488L24.5547 65.9488L46.823 65.9488Z" stroke="#E3E3E3" stroke-width="1.15" stroke-miterlimit="10"/>
<path d="M35.6888 107.915L35.6888 130.184M46.823 119.049L24.5547 119.049L46.823 119.049Z" stroke="#E3E3E3" stroke-width="1.15" stroke-miterlimit="10"/>
<path d="M35.6888 54.8147L35.6888 77.083M46.823 65.9488L24.5547 65.9488L46.823 65.9488Z" stroke="#E3E3E3" stroke-width="2.3" stroke-miterlimit="10"/>
<path d="M35.6888 107.915L35.6888 130.184M46.823 119.049L24.5547 119.049L46.823 119.049Z" stroke="#E3E3E3" stroke-width="2.3" stroke-miterlimit="10"/>
</svg>
