<svg width="221" height="178" viewBox="0 0 221 178" fill="none" xmlns="http://www.w3.org/2000/svg">
<path d="M11.4864 52.0629L11.4864 73.6051M22.9669 62.834L0.00586032 62.834L22.9669 62.834Z" stroke="#E3E3E3" stroke-width="1.58788" stroke-miterlimit="10"/>
<path d="M11.4864 105.089L11.4864 126.631M22.9669 115.86L0.00586032 115.86L22.9669 115.86Z" stroke="#E3E3E3" stroke-width="1.58788" stroke-miterlimit="10"/>
<path d="M11.4864 156.459L11.4864 178.001M22.9669 167.23L0.00586032 167.23L22.9669 167.23Z" stroke="#E3E3E3" stroke-width="1.58788" stroke-miterlimit="10"/>
<path d="M11.4864 52.0629L11.4864 73.6051M22.9669 62.834L0.00586032 62.834L22.9669 62.834Z" stroke="#E3E3E3" stroke-width="3.17577" stroke-miterlimit="10"/>
<path d="M11.4864 105.089L11.4864 126.631M22.9669 115.86L0.00586032 115.86L22.9669 115.86Z" stroke="#E3E3E3" stroke-width="3.17577" stroke-miterlimit="10"/>
<path d="M11.4864 156.459L11.4864 178.001M22.9669 167.23L0.00586032 167.23L22.9669 167.23Z" stroke="#E3E3E3" stroke-width="3.17577" stroke-miterlimit="10"/>
<path d="M64.4727 52.0628L64.4727 73.605M75.9532 62.8339L52.9922 62.8339L75.9532 62.8339Z" stroke="#E3E3E3" stroke-width="1.58788" stroke-miterlimit="10"/>
<path d="M64.4727 105.089L64.4727 126.631M75.9532 115.86L52.9922 115.86L75.9532 115.86Z" stroke="#E3E3E3" stroke-width="1.58788" stroke-miterlimit="10"/>
<path d="M64.4727 156.458L64.4727 178.001M75.9532 167.23L52.9922 167.23L75.9532 167.23Z" stroke="#E3E3E3" stroke-width="1.58788" stroke-miterlimit="10"/>
<path d="M64.4727 52.0628L64.4727 73.605M75.9532 62.8339L52.9922 62.8339L75.9532 62.8339Z" stroke="#E3E3E3" stroke-width="3.17577" stroke-miterlimit="10"/>
<path d="M64.4727 105.089L64.4727 126.631M75.9532 115.86L52.9922 115.86L75.9532 115.86Z" stroke="#E3E3E3" stroke-width="3.17577" stroke-miterlimit="10"/>
<path d="M64.4727 156.458L64.4727 178.001M75.9532 167.23L52.9922 167.23L75.9532 167.23Z" stroke="#E3E3E3" stroke-width="3.17577" stroke-miterlimit="10"/>
<path d="M117.46 105.089L117.46 126.631M128.941 115.86L105.979 115.86L128.941 115.86Z" stroke="#E3E3E3" stroke-width="1.58788" stroke-miterlimit="10"/>
<path d="M117.46 156.458L117.46 178.001M128.941 167.23L105.979 167.23L128.941 167.23Z" stroke="#E3E3E3" stroke-width="1.58788" stroke-miterlimit="10"/>
<path d="M117.46 105.089L117.46 126.631M128.941 115.86L105.979 115.86L128.941 115.86Z" stroke="#E3E3E3" stroke-width="3.17577" stroke-miterlimit="10"/>
<path d="M117.46 156.458L117.46 178.001M128.941 167.23L105.979 167.23L128.941 167.23Z" stroke="#E3E3E3" stroke-width="3.17577" stroke-miterlimit="10"/>
<path d="M170.441 105.089L170.441 126.631M181.922 115.86L158.961 115.86L181.922 115.86Z" stroke="#E3E3E3" stroke-width="1.58788" stroke-miterlimit="10"/>
<path d="M170.441 156.458L170.441 178.001M181.922 167.23L158.961 167.23L181.922 167.23Z" stroke="#E3E3E3" stroke-width="1.58788" stroke-miterlimit="10"/>
<path d="M170.441 105.089L170.441 126.631M181.922 115.86L158.961 115.86L181.922 115.86Z" stroke="#E3E3E3" stroke-width="3.17577" stroke-miterlimit="10"/>
<path d="M170.441 156.458L170.441 178.001M181.922 167.23L158.961 167.23L181.922 167.23Z" stroke="#E3E3E3" stroke-width="3.17577" stroke-miterlimit="10"/>
<path d="M223.428 105.089L223.428 126.631M234.908 115.86L211.947 115.86L234.908 115.86Z" stroke="#E3E3E3" stroke-width="1.58788" stroke-miterlimit="10"/>
<path d="M223.428 156.458L223.428 178.001M234.908 167.23L211.947 167.23L234.908 167.23Z" stroke="#E3E3E3" stroke-width="1.58788" stroke-miterlimit="10"/>
<path d="M223.428 105.089L223.428 126.631M234.908 115.86L211.947 115.86L234.908 115.86Z" stroke="#E3E3E3" stroke-width="3.17577" stroke-miterlimit="10"/>
<path d="M223.428 156.458L223.428 178.001M234.908 167.23L211.947 167.23L234.908 167.23Z" stroke="#E3E3E3" stroke-width="3.17577" stroke-miterlimit="10"/>
<path d="M11.4864 0.00176924L11.4864 21.5439M22.9669 10.7729L0.00586032 10.7729L22.9669 10.7729Z" stroke="#E3E3E3" stroke-width="1.58788" stroke-miterlimit="10"/>
<path d="M11.4864 53.0295L11.4864 74.5717M22.9669 63.8006L0.00586032 63.8006L22.9669 63.8006Z" stroke="#E3E3E3" stroke-width="1.58788" stroke-miterlimit="10"/>
<path d="M11.4864 104.399L11.4864 125.941M22.9669 115.17L0.00586032 115.17L22.9669 115.17Z" stroke="#E3E3E3" stroke-width="1.58788" stroke-miterlimit="10"/>
<path d="M11.4864 0.00176924L11.4864 21.5439M22.9669 10.7729L0.00586032 10.7729L22.9669 10.7729Z" stroke="#E3E3E3" stroke-width="3.17577" stroke-miterlimit="10"/>
<path d="M11.4864 53.0295L11.4864 74.5717M22.9669 63.8006L0.00586032 63.8006L22.9669 63.8006Z" stroke="#E3E3E3" stroke-width="3.17577" stroke-miterlimit="10"/>
<path d="M11.4864 104.399L11.4864 125.941M22.9669 115.17L0.00586032 115.17L22.9669 115.17Z" stroke="#E3E3E3" stroke-width="3.17577" stroke-miterlimit="10"/>
<path d="M64.4727 0.00176924L64.4727 21.5439M75.9532 10.7729L52.9922 10.7729L75.9532 10.7729Z" stroke="#E3E3E3" stroke-width="1.58788" stroke-miterlimit="10"/>
<path d="M64.4727 53.0295L64.4727 74.5717M75.9532 63.8006L52.9922 63.8006L75.9532 63.8006Z" stroke="#E3E3E3" stroke-width="1.58788" stroke-miterlimit="10"/>
<path d="M64.4727 104.399L64.4727 125.941M75.9532 115.17L52.9922 115.17L75.9532 115.17Z" stroke="#E3E3E3" stroke-width="1.58788" stroke-miterlimit="10"/>
<path d="M64.4727 0.00176924L64.4727 21.5439M75.9532 10.7729L52.9922 10.7729L75.9532 10.7729Z" stroke="#E3E3E3" stroke-width="3.17577" stroke-miterlimit="10"/>
<path d="M64.4727 53.0295L64.4727 74.5717M75.9532 63.8006L52.9922 63.8006L75.9532 63.8006Z" stroke="#E3E3E3" stroke-width="3.17577" stroke-miterlimit="10"/>
<path d="M64.4727 104.399L64.4727 125.941M75.9532 115.17L52.9922 115.17L75.9532 115.17Z" stroke="#E3E3E3" stroke-width="3.17577" stroke-miterlimit="10"/>
<path d="M117.46 53.0295L117.46 74.5717M128.941 63.8006L105.979 63.8006L128.941 63.8006Z" stroke="#E3E3E3" stroke-width="1.58788" stroke-miterlimit="10"/>
<path d="M117.46 104.399L117.46 125.941M128.941 115.17L105.979 115.17L128.941 115.17Z" stroke="#E3E3E3" stroke-width="1.58788" stroke-miterlimit="10"/>
<path d="M117.46 53.0295L117.46 74.5717M128.941 63.8006L105.979 63.8006L128.941 63.8006Z" stroke="#E3E3E3" stroke-width="3.17577" stroke-miterlimit="10"/>
<path d="M117.46 104.399L117.46 125.941M128.941 115.17L105.979 115.17L128.941 115.17Z" stroke="#E3E3E3" stroke-width="3.17577" stroke-miterlimit="10"/>
<path d="M170.441 53.0295L170.441 74.5717M181.922 63.8006L158.961 63.8006L181.922 63.8006Z" stroke="#E3E3E3" stroke-width="1.58788" stroke-miterlimit="10"/>
<path d="M170.441 104.399L170.441 125.941M181.922 115.17L158.961 115.17L181.922 115.17Z" stroke="#E3E3E3" stroke-width="1.58788" stroke-miterlimit="10"/>
<path d="M170.441 53.0295L170.441 74.5717M181.922 63.8006L158.961 63.8006L181.922 63.8006Z" stroke="#E3E3E3" stroke-width="3.17577" stroke-miterlimit="10"/>
<path d="M170.441 104.399L170.441 125.941M181.922 115.17L158.961 115.17L181.922 115.17Z" stroke="#E3E3E3" stroke-width="3.17577" stroke-miterlimit="10"/>
<path d="M223.428 53.0295L223.428 74.5717M234.908 63.8006L211.947 63.8006L234.908 63.8006Z" stroke="#E3E3E3" stroke-width="1.58788" stroke-miterlimit="10"/>
<path d="M223.428 104.399L223.428 125.941M234.908 115.17L211.947 115.17L234.908 115.17Z" stroke="#E3E3E3" stroke-width="1.58788" stroke-miterlimit="10"/>
<path d="M223.428 53.0295L223.428 74.5717M234.908 63.8006L211.947 63.8006L234.908 63.8006Z" stroke="#E3E3E3" stroke-width="3.17577" stroke-miterlimit="10"/>
<path d="M223.428 104.399L223.428 125.941M234.908 115.17L211.947 115.17L234.908 115.17Z" stroke="#E3E3E3" stroke-width="3.17577" stroke-miterlimit="10"/>
</svg>
