<svg width="132" height="199" viewBox="0 0 132 199" fill="none" xmlns="http://www.w3.org/2000/svg">
<path d="M46.7964 188.424L66.1602 188.424M56.4783 178.742L56.4783 198.106L56.4783 178.742Z" stroke="#E3E3E3" stroke-miterlimit="10"/>
<path d="M94.4614 188.424L113.825 188.424M104.143 178.742L104.143 198.106L104.143 178.742Z" stroke="#E3E3E3" stroke-miterlimit="10"/>
<path d="M46.7964 188.424L66.1602 188.424M56.4783 178.742L56.4783 198.106L56.4783 178.742Z" stroke="#E3E3E3" stroke-width="2" stroke-miterlimit="10"/>
<path d="M94.4614 188.424L113.825 188.424M104.143 178.742L104.143 198.106L104.143 178.742Z" stroke="#E3E3E3" stroke-width="2" stroke-miterlimit="10"/>
<path d="M46.7964 143.739L66.1602 143.739M56.4783 134.057L56.4783 153.421L56.4783 134.057Z" stroke="#E3E3E3" stroke-miterlimit="10"/>
<path d="M94.4614 143.739L113.825 143.739M104.143 134.057L104.143 153.421L104.143 134.057Z" stroke="#E3E3E3" stroke-miterlimit="10"/>
<path d="M46.7964 143.739L66.1602 143.739M56.4783 134.057L56.4783 153.421L56.4783 134.057Z" stroke="#E3E3E3" stroke-width="2" stroke-miterlimit="10"/>
<path d="M94.4614 143.739L113.825 143.739M104.143 134.057L104.143 153.421L104.143 134.057Z" stroke="#E3E3E3" stroke-width="2" stroke-miterlimit="10"/>
<path d="M94.4614 99.0532L113.825 99.0532M104.143 89.3714L104.143 108.735L104.143 89.3714Z" stroke="#E3E3E3" stroke-miterlimit="10"/>
<path d="M94.4614 99.0532L113.825 99.0532M104.143 89.3714L104.143 108.735L104.143 89.3714Z" stroke="#E3E3E3" stroke-width="2" stroke-miterlimit="10"/>
<path d="M94.4614 54.3677L113.825 54.3677M104.143 44.6858L104.143 64.0496L104.143 44.6858Z" stroke="#E3E3E3" stroke-miterlimit="10"/>
<path d="M94.4614 54.3677L113.825 54.3677M104.143 44.6858L104.143 64.0496L104.143 44.6858Z" stroke="#E3E3E3" stroke-width="2" stroke-miterlimit="10"/>
<path d="M94.4614 9.68189L113.825 9.68189M104.143 1.2809e-05L104.143 19.3638L104.143 1.2809e-05Z" stroke="#E3E3E3" stroke-miterlimit="10"/>
<path d="M94.4614 9.68189L113.825 9.68189M104.143 1.2809e-05L104.143 19.3638L104.143 1.2809e-05Z" stroke="#E3E3E3" stroke-width="2" stroke-miterlimit="10"/>
<path d="M-0.000474626 188.424L19.3633 188.424M9.6814 178.742L9.6814 198.106L9.6814 178.742Z" stroke="#E3E3E3" stroke-miterlimit="10"/>
<path d="M47.6646 188.424L67.0283 188.424M57.3464 178.742L57.3464 198.106L57.3464 178.742Z" stroke="#E3E3E3" stroke-miterlimit="10"/>
<path d="M93.8394 188.424L113.203 188.424M103.521 178.742L103.521 198.106L103.521 178.742Z" stroke="#E3E3E3" stroke-miterlimit="10"/>
<path d="M-0.000474626 188.424L19.3633 188.424M9.6814 178.742L9.6814 198.106L9.6814 178.742Z" stroke="#E3E3E3" stroke-width="2" stroke-miterlimit="10"/>
<path d="M47.6646 188.424L67.0283 188.424M57.3464 178.742L57.3464 198.106L57.3464 178.742Z" stroke="#E3E3E3" stroke-width="2" stroke-miterlimit="10"/>
<path d="M93.8394 188.424L113.203 188.424M103.521 178.742L103.521 198.106L103.521 178.742Z" stroke="#E3E3E3" stroke-width="2" stroke-miterlimit="10"/>
<path d="M-0.000474626 143.739L19.3633 143.739M9.6814 134.057L9.6814 153.421L9.6814 134.057Z" stroke="#E3E3E3" stroke-miterlimit="10"/>
<path d="M47.6646 143.739L67.0283 143.739M57.3464 134.057L57.3464 153.421L57.3464 134.057Z" stroke="#E3E3E3" stroke-miterlimit="10"/>
<path d="M93.8394 143.739L113.203 143.739M103.521 134.057L103.521 153.421L103.521 134.057Z" stroke="#E3E3E3" stroke-miterlimit="10"/>
<path d="M-0.000474626 143.739L19.3633 143.739M9.6814 134.057L9.6814 153.421L9.6814 134.057Z" stroke="#E3E3E3" stroke-width="2" stroke-miterlimit="10"/>
<path d="M47.6646 143.739L67.0283 143.739M57.3464 134.057L57.3464 153.421L57.3464 134.057Z" stroke="#E3E3E3" stroke-width="2" stroke-miterlimit="10"/>
<path d="M93.8394 143.739L113.203 143.739M103.521 134.057L103.521 153.421L103.521 134.057Z" stroke="#E3E3E3" stroke-width="2" stroke-miterlimit="10"/>
<path d="M47.6646 99.0532L67.0283 99.0532M57.3464 89.3714L57.3464 108.735L57.3464 89.3714Z" stroke="#E3E3E3" stroke-miterlimit="10"/>
<path d="M93.8394 99.0523L113.203 99.0523M103.521 89.3704L103.521 108.734L103.521 89.3704Z" stroke="#E3E3E3" stroke-miterlimit="10"/>
<path d="M47.6646 99.0532L67.0283 99.0532M57.3464 89.3714L57.3464 108.735L57.3464 89.3714Z" stroke="#E3E3E3" stroke-width="2" stroke-miterlimit="10"/>
<path d="M93.8394 99.0523L113.203 99.0523M103.521 89.3704L103.521 108.734L103.521 89.3704Z" stroke="#E3E3E3" stroke-width="2" stroke-miterlimit="10"/>
<path d="M47.6646 54.3677L67.0283 54.3677M57.3464 44.6858L57.3464 64.0496L57.3464 44.6858Z" stroke="#E3E3E3" stroke-miterlimit="10"/>
<path d="M93.8394 54.3677L113.203 54.3677M103.521 44.6858L103.521 64.0496L103.521 44.6858Z" stroke="#E3E3E3" stroke-miterlimit="10"/>
<path d="M47.6646 54.3677L67.0283 54.3677M57.3464 44.6858L57.3464 64.0496L57.3464 44.6858Z" stroke="#E3E3E3" stroke-width="2" stroke-miterlimit="10"/>
<path d="M93.8394 54.3677L113.203 54.3677M103.521 44.6858L103.521 64.0496L103.521 44.6858Z" stroke="#E3E3E3" stroke-width="2" stroke-miterlimit="10"/>
<path d="M47.6646 9.68189L67.0283 9.68189M57.3464 1.2809e-05L57.3464 19.3638L57.3464 1.2809e-05Z" stroke="#E3E3E3" stroke-miterlimit="10"/>
<path d="M93.8394 9.68189L113.203 9.68189M103.521 1.2809e-05L103.521 19.3638L103.521 1.2809e-05Z" stroke="#E3E3E3" stroke-miterlimit="10"/>
<path d="M47.6646 9.68189L67.0283 9.68189M57.3464 1.2809e-05L57.3464 19.3638L57.3464 1.2809e-05Z" stroke="#E3E3E3" stroke-width="2" stroke-miterlimit="10"/>
<path d="M93.8394 9.68189L113.203 9.68189M103.521 1.2809e-05L103.521 19.3638L103.521 1.2809e-05Z" stroke="#E3E3E3" stroke-width="2" stroke-miterlimit="10"/>
</svg>
