<svg width="37" height="161" viewBox="0 0 37 161" fill="none" xmlns="http://www.w3.org/2000/svg">
<path d="M26.4241 94.5147L26.4241 113.878M36.1059 104.197L16.7422 104.197L36.1059 104.197Z" stroke="#E3E3E3" stroke-miterlimit="10"/>
<path d="M26.4241 140.689L26.4241 160.053M36.1059 150.371L16.7422 150.371L36.1059 150.371Z" stroke="#E3E3E3" stroke-miterlimit="10"/>
<path d="M26.4241 94.5147L26.4241 113.878M36.1059 104.197L16.7422 104.197L36.1059 104.197Z" stroke="#E3E3E3" stroke-width="2" stroke-miterlimit="10"/>
<path d="M26.4241 140.689L26.4241 160.053M36.1059 150.371L16.7422 150.371L36.1059 150.371Z" stroke="#E3E3E3" stroke-width="2" stroke-miterlimit="10"/>
<path d="M26.4241 47.7178L26.4241 67.0815M36.1059 57.3997L16.7422 57.3997L36.1059 57.3997Z" stroke="#E3E3E3" stroke-miterlimit="10"/>
<path d="M26.4241 93.8926L26.4241 113.256M36.1059 103.574L16.7422 103.574L36.1059 103.574Z" stroke="#E3E3E3" stroke-miterlimit="10"/>
<path d="M26.4241 47.7178L26.4241 67.0815M36.1059 57.3997L16.7422 57.3997L36.1059 57.3997Z" stroke="#E3E3E3" stroke-width="2" stroke-miterlimit="10"/>
<path d="M26.4241 93.8926L26.4241 113.256M36.1059 103.574L16.7422 103.574L36.1059 103.574Z" stroke="#E3E3E3" stroke-width="2" stroke-miterlimit="10"/>
</svg>
