<svg width="91" height="160" viewBox="0 0 91 160" fill="none" xmlns="http://www.w3.org/2000/svg">
<path d="M9.68188 46.7969L9.68188 66.1606M19.3638 56.4788L8.46417e-07 56.4788L19.3638 56.4788Z" stroke="#E3E3E3" stroke-miterlimit="10"/>
<path d="M9.68188 94.4614L9.68188 113.825M19.3638 104.143L8.46417e-07 104.143L19.3638 104.143Z" stroke="#E3E3E3" stroke-miterlimit="10"/>
<path d="M9.68188 140.636L9.68188 160M19.3638 150.318L8.46417e-07 150.318L19.3638 150.318Z" stroke="#E3E3E3" stroke-miterlimit="10"/>
<path d="M9.68188 46.7969L9.68188 66.1606M19.3638 56.4788L8.46417e-07 56.4788L19.3638 56.4788Z" stroke="#E3E3E3" stroke-width="2" stroke-miterlimit="10"/>
<path d="M9.68188 94.4614L9.68188 113.825M19.3638 104.143L8.46417e-07 104.143L19.3638 104.143Z" stroke="#E3E3E3" stroke-width="2" stroke-miterlimit="10"/>
<path d="M9.68188 140.636L9.68188 160M19.3638 150.318L8.46417e-07 150.318L19.3638 150.318Z" stroke="#E3E3E3" stroke-width="2" stroke-miterlimit="10"/>
<path d="M54.3674 46.7969L54.3674 66.1606M64.0493 56.4788L44.6855 56.4788L64.0493 56.4788Z" stroke="#E3E3E3" stroke-miterlimit="10"/>
<path d="M54.3674 94.4614L54.3674 113.825M64.0493 104.143L44.6855 104.143L64.0493 104.143Z" stroke="#E3E3E3" stroke-miterlimit="10"/>
<path d="M54.3674 140.636L54.3674 160M64.0493 150.318L44.6855 150.318L64.0493 150.318Z" stroke="#E3E3E3" stroke-miterlimit="10"/>
<path d="M54.3674 46.7969L54.3674 66.1606M64.0493 56.4788L44.6855 56.4788L64.0493 56.4788Z" stroke="#E3E3E3" stroke-width="2" stroke-miterlimit="10"/>
<path d="M54.3674 94.4614L54.3674 113.825M64.0493 104.143L44.6855 104.143L64.0493 104.143Z" stroke="#E3E3E3" stroke-width="2" stroke-miterlimit="10"/>
<path d="M54.3674 140.636L54.3674 160M64.0493 150.318L44.6855 150.318L64.0493 150.318Z" stroke="#E3E3E3" stroke-width="2" stroke-miterlimit="10"/>
<path d="M99.053 94.4614L99.053 113.825M108.735 104.143L89.3711 104.143L108.735 104.143Z" stroke="#E3E3E3" stroke-miterlimit="10"/>
<path d="M99.054 140.636L99.0539 160M108.736 150.318L89.3721 150.318L108.736 150.318Z" stroke="#E3E3E3" stroke-miterlimit="10"/>
<path d="M99.053 94.4614L99.053 113.825M108.735 104.143L89.3711 104.143L108.735 104.143Z" stroke="#E3E3E3" stroke-width="2" stroke-miterlimit="10"/>
<path d="M99.054 140.636L99.0539 160M108.736 150.318L89.3721 150.318L108.736 150.318Z" stroke="#E3E3E3" stroke-width="2" stroke-miterlimit="10"/>
<path d="M9.68188 1.40786e-05L9.68188 19.3638M19.3638 9.68189L8.46417e-07 9.68189L19.3638 9.68189Z" stroke="#E3E3E3" stroke-miterlimit="10"/>
<path d="M9.68188 47.6646L9.68188 67.0283M19.3638 57.3464L8.46417e-07 57.3464L19.3638 57.3464Z" stroke="#E3E3E3" stroke-miterlimit="10"/>
<path d="M9.68188 93.8394L9.68188 113.203M19.3638 103.521L8.46417e-07 103.521L19.3638 103.521Z" stroke="#E3E3E3" stroke-miterlimit="10"/>
<path d="M9.68188 1.40786e-05L9.68188 19.3638M19.3638 9.68189L8.46417e-07 9.68189L19.3638 9.68189Z" stroke="#E3E3E3" stroke-width="2" stroke-miterlimit="10"/>
<path d="M9.68188 47.6646L9.68188 67.0283M19.3638 57.3464L8.46417e-07 57.3464L19.3638 57.3464Z" stroke="#E3E3E3" stroke-width="2" stroke-miterlimit="10"/>
<path d="M9.68188 93.8394L9.68188 113.203M19.3638 103.521L8.46417e-07 103.521L19.3638 103.521Z" stroke="#E3E3E3" stroke-width="2" stroke-miterlimit="10"/>
<path d="M54.3674 1.40786e-05L54.3674 19.3638M64.0493 9.68189L44.6855 9.68189L64.0493 9.68189Z" stroke="#E3E3E3" stroke-miterlimit="10"/>
<path d="M54.3674 47.6646L54.3674 67.0283M64.0493 57.3464L44.6855 57.3464L64.0493 57.3464Z" stroke="#E3E3E3" stroke-miterlimit="10"/>
<path d="M54.3674 93.8394L54.3674 113.203M64.0493 103.521L44.6855 103.521L64.0493 103.521Z" stroke="#E3E3E3" stroke-miterlimit="10"/>
<path d="M54.3674 1.40786e-05L54.3674 19.3638M64.0493 9.68189L44.6855 9.68189L64.0493 9.68189Z" stroke="#E3E3E3" stroke-width="2" stroke-miterlimit="10"/>
<path d="M54.3674 47.6646L54.3674 67.0283M64.0493 57.3464L44.6855 57.3464L64.0493 57.3464Z" stroke="#E3E3E3" stroke-width="2" stroke-miterlimit="10"/>
<path d="M54.3674 93.8394L54.3674 113.203M64.0493 103.521L44.6855 103.521L64.0493 103.521Z" stroke="#E3E3E3" stroke-width="2" stroke-miterlimit="10"/>
<path d="M99.053 47.6646L99.053 67.0283M108.735 57.3464L89.3711 57.3464L108.735 57.3464Z" stroke="#E3E3E3" stroke-miterlimit="10"/>
<path d="M99.054 93.8394L99.0539 113.203M108.736 103.521L89.3721 103.521L108.736 103.521Z" stroke="#E3E3E3" stroke-miterlimit="10"/>
<path d="M99.053 47.6646L99.053 67.0283M108.735 57.3464L89.3711 57.3464L108.735 57.3464Z" stroke="#E3E3E3" stroke-width="2" stroke-miterlimit="10"/>
<path d="M99.054 93.8394L99.0539 113.203M108.736 103.521L89.3721 103.521L108.736 103.521Z" stroke="#E3E3E3" stroke-width="2" stroke-miterlimit="10"/>
</svg>
