<svg width="75" height="160" viewBox="0 0 75 160" fill="none" xmlns="http://www.w3.org/2000/svg">
<path d="M64.4236 113.203V93.8395M54.7417 103.521H74.1055H54.7417Z" stroke="#E3E3E3" stroke-miterlimit="10"/>
<path d="M64.4236 65.5387V46.1749M54.7417 55.8568H74.1055H54.7417Z" stroke="#E3E3E3" stroke-miterlimit="10"/>
<path d="M64.4236 19.3638V0M54.7417 9.68188H74.1055H54.7417Z" stroke="#E3E3E3" stroke-miterlimit="10"/>
<path d="M64.4236 113.203V93.8395M54.7417 103.521H74.1055H54.7417Z" stroke="#E3E3E3" stroke-width="2" stroke-miterlimit="10"/>
<path d="M64.4236 65.5387V46.1749M54.7417 55.8568H74.1055H54.7417Z" stroke="#E3E3E3" stroke-width="2" stroke-miterlimit="10"/>
<path d="M64.4236 19.3638V0M54.7417 9.68188H74.1055H54.7417Z" stroke="#E3E3E3" stroke-width="2" stroke-miterlimit="10"/>
<path d="M19.738 113.203V93.8395M10.0562 103.521H29.4199H10.0562Z" stroke="#E3E3E3" stroke-miterlimit="10"/>
<path d="M19.738 65.5387V46.1749M10.0562 55.8568H29.4199H10.0562Z" stroke="#E3E3E3" stroke-miterlimit="10"/>
<path d="M19.738 19.3638V0M10.0562 9.68188H29.4199H10.0562Z" stroke="#E3E3E3" stroke-miterlimit="10"/>
<path d="M19.738 113.203V93.8395M10.0562 103.521H29.4199H10.0562Z" stroke="#E3E3E3" stroke-width="2" stroke-miterlimit="10"/>
<path d="M19.738 65.5387V46.1749M10.0562 55.8568H29.4199H10.0562Z" stroke="#E3E3E3" stroke-width="2" stroke-miterlimit="10"/>
<path d="M19.738 19.3638V0M10.0562 9.68188H29.4199H10.0562Z" stroke="#E3E3E3" stroke-width="2" stroke-miterlimit="10"/>
<path d="M64.4236 160V140.636M54.7417 150.318H74.1055H54.7417Z" stroke="#E3E3E3" stroke-miterlimit="10"/>
<path d="M64.4236 112.335V92.9716M54.7417 102.653H74.1055H54.7417Z" stroke="#E3E3E3" stroke-miterlimit="10"/>
<path d="M64.4236 66.1605V46.7968M54.7417 56.4786H74.1055H54.7417Z" stroke="#E3E3E3" stroke-miterlimit="10"/>
<path d="M64.4236 160V140.636M54.7417 150.318H74.1055H54.7417Z" stroke="#E3E3E3" stroke-width="2" stroke-miterlimit="10"/>
<path d="M64.4236 112.335V92.9716M54.7417 102.653H74.1055H54.7417Z" stroke="#E3E3E3" stroke-width="2" stroke-miterlimit="10"/>
<path d="M64.4236 66.1605V46.7968M54.7417 56.4786H74.1055H54.7417Z" stroke="#E3E3E3" stroke-width="2" stroke-miterlimit="10"/>
<path d="M19.738 160V140.636M10.0562 150.318H29.4199H10.0562Z" stroke="#E3E3E3" stroke-miterlimit="10"/>
<path d="M19.738 112.335V92.9716M10.0562 102.653H29.4199H10.0562Z" stroke="#E3E3E3" stroke-miterlimit="10"/>
<path d="M19.738 66.1605V46.7968M10.0562 56.4786H29.4199H10.0562Z" stroke="#E3E3E3" stroke-miterlimit="10"/>
<path d="M19.738 160V140.636M10.0562 150.318H29.4199H10.0562Z" stroke="#E3E3E3" stroke-width="2" stroke-miterlimit="10"/>
<path d="M19.738 112.335V92.9716M10.0562 102.653H29.4199H10.0562Z" stroke="#E3E3E3" stroke-width="2" stroke-miterlimit="10"/>
<path d="M19.738 66.1605V46.7968M10.0562 56.4786H29.4199H10.0562Z" stroke="#E3E3E3" stroke-width="2" stroke-miterlimit="10"/>
</svg>
