<svg width="101" height="205" viewBox="0 0 101 205" fill="none" xmlns="http://www.w3.org/2000/svg">
<path d="M74.2468 83.9705V59.1606M61.0248 71.5656H87.4688H61.0248Z" stroke="#E3E3E3" stroke-width="1.82874" stroke-miterlimit="10"/>
<path d="M74.2468 24.8094V-0.000366211M61.0248 12.4045H87.4688H61.0248Z" stroke="#E3E3E3" stroke-width="1.82874" stroke-miterlimit="10"/>
<path d="M74.2468 83.9705V59.1606M61.0248 71.5656H87.4688H61.0248Z" stroke="#E3E3E3" stroke-width="3.65748" stroke-miterlimit="10"/>
<path d="M74.2468 24.8094V-0.000366211M61.0248 12.4045H87.4688H61.0248Z" stroke="#E3E3E3" stroke-width="3.65748" stroke-miterlimit="10"/>
<path d="M13.2234 83.9705V59.1606M0.00140119 71.5656H26.4453H0.00140119Z" stroke="#E3E3E3" stroke-width="1.82874" stroke-miterlimit="10"/>
<path d="M13.2234 24.8094V-0.000366211M0.00140119 12.4045H26.4453H0.00140119Z" stroke="#E3E3E3" stroke-width="1.82874" stroke-miterlimit="10"/>
<path d="M13.2234 83.9705V59.1606M0.00140119 71.5656H26.4453H0.00140119Z" stroke="#E3E3E3" stroke-width="3.65748" stroke-miterlimit="10"/>
<path d="M13.2234 24.8094V-0.000366211M0.00140119 12.4045H26.4453H0.00140119Z" stroke="#E3E3E3" stroke-width="3.65748" stroke-miterlimit="10"/>
<path d="M74.2468 143.929V119.119M61.0248 131.524H87.4688H61.0248Z" stroke="#E3E3E3" stroke-width="1.82874" stroke-miterlimit="10"/>
<path d="M74.2468 84.7678V59.958M61.0248 72.3629H87.4688H61.0248Z" stroke="#E3E3E3" stroke-width="1.82874" stroke-miterlimit="10"/>
<path d="M74.2468 143.929V119.119M61.0248 131.524H87.4688H61.0248Z" stroke="#E3E3E3" stroke-width="3.65748" stroke-miterlimit="10"/>
<path d="M74.2468 84.7678V59.958M61.0248 72.3629H87.4688H61.0248Z" stroke="#E3E3E3" stroke-width="3.65748" stroke-miterlimit="10"/>
<path d="M13.2234 143.929V119.119M0.00140119 131.524H26.4453H0.00140119Z" stroke="#E3E3E3" stroke-width="1.82874" stroke-miterlimit="10"/>
<path d="M13.2234 84.7678V59.958M0.00140119 72.3629H26.4453H0.00140119Z" stroke="#E3E3E3" stroke-width="1.82874" stroke-miterlimit="10"/>
<path d="M13.2234 143.929V119.119M0.00140119 131.524H26.4453H0.00140119Z" stroke="#E3E3E3" stroke-width="3.65748" stroke-miterlimit="10"/>
<path d="M13.2234 84.7678V59.958M0.00140119 72.3629H26.4453H0.00140119Z" stroke="#E3E3E3" stroke-width="3.65748" stroke-miterlimit="10"/>
</svg>
