<svg width="175" height="94" viewBox="0 0 175 94" fill="none" xmlns="http://www.w3.org/2000/svg">
<path d="M165.556 93.2713V77.317M157.053 85.2941H174.059H157.053Z" stroke="#E3E3E3" stroke-width="1.176" stroke-miterlimit="10"/>
<path d="M165.556 53.9989V38.0446M157.053 46.0218H174.059H157.053Z" stroke="#E3E3E3" stroke-width="1.176" stroke-miterlimit="10"/>
<path d="M165.556 15.9546V0.000244141M157.053 7.97741H174.059H157.053Z" stroke="#E3E3E3" stroke-width="1.176" stroke-miterlimit="10"/>
<path d="M165.556 93.2713V77.317M157.053 85.2941H174.059H157.053Z" stroke="#E3E3E3" stroke-width="2.352" stroke-miterlimit="10"/>
<path d="M165.556 53.9989V38.0446M157.053 46.0218H174.059H157.053Z" stroke="#E3E3E3" stroke-width="2.352" stroke-miterlimit="10"/>
<path d="M165.556 15.9546V0.000244141M157.053 7.97741H174.059H157.053Z" stroke="#E3E3E3" stroke-width="2.352" stroke-miterlimit="10"/>
<path d="M126.314 93.2713V77.317M117.811 85.2941H134.816H117.811Z" stroke="#E3E3E3" stroke-width="1.176" stroke-miterlimit="10"/>
<path d="M126.314 53.9989V38.0446M117.811 46.0218H134.816H117.811Z" stroke="#E3E3E3" stroke-width="1.176" stroke-miterlimit="10"/>
<path d="M126.314 15.9546V0.000244141M117.811 7.97741H134.816H117.811Z" stroke="#E3E3E3" stroke-width="1.176" stroke-miterlimit="10"/>
<path d="M126.314 93.2713V77.317M117.811 85.2941H134.816H117.811Z" stroke="#E3E3E3" stroke-width="2.352" stroke-miterlimit="10"/>
<path d="M126.314 53.9989V38.0446M117.811 46.0218H134.816H117.811Z" stroke="#E3E3E3" stroke-width="2.352" stroke-miterlimit="10"/>
<path d="M126.314 15.9546V0.000244141M117.811 7.97741H134.816H117.811Z" stroke="#E3E3E3" stroke-width="2.352" stroke-miterlimit="10"/>
<path d="M87.0707 53.9989V38.0446M78.5681 46.0218H95.5732H78.5681Z" stroke="#E3E3E3" stroke-width="1.176" stroke-miterlimit="10"/>
<path d="M87.0707 15.9546V0.000244141M78.5681 7.97741H95.5732H78.5681Z" stroke="#E3E3E3" stroke-width="1.176" stroke-miterlimit="10"/>
<path d="M87.0707 53.9989V38.0446M78.5681 46.0218H95.5732H78.5681Z" stroke="#E3E3E3" stroke-width="2.352" stroke-miterlimit="10"/>
<path d="M87.0707 15.9546V0.000244141M78.5681 7.97741H95.5732H78.5681Z" stroke="#E3E3E3" stroke-width="2.352" stroke-miterlimit="10"/>
<path d="M47.8285 53.9989V38.0446M39.3259 46.0218H56.3311H39.3259Z" stroke="#E3E3E3" stroke-width="1.176" stroke-miterlimit="10"/>
<path d="M47.8285 15.9546V0.000244141M39.3259 7.97741H56.3311H39.3259Z" stroke="#E3E3E3" stroke-width="1.176" stroke-miterlimit="10"/>
<path d="M47.8285 53.9989V38.0446M39.3259 46.0218H56.3311H39.3259Z" stroke="#E3E3E3" stroke-width="2.352" stroke-miterlimit="10"/>
<path d="M47.8285 15.9546V0.000244141M39.3259 7.97741H56.3311H39.3259Z" stroke="#E3E3E3" stroke-width="2.352" stroke-miterlimit="10"/>
<path d="M8.58531 53.9989V38.0446M0.0827287 46.0218H17.0879H0.0827287Z" stroke="#E3E3E3" stroke-width="1.176" stroke-miterlimit="10"/>
<path d="M8.58531 15.9546V0.000244141M0.0827287 7.97741H17.0879H0.0827287Z" stroke="#E3E3E3" stroke-width="1.176" stroke-miterlimit="10"/>
<path d="M8.58531 53.9989V38.0446M0.0827287 46.0218H17.0879H0.0827287Z" stroke="#E3E3E3" stroke-width="2.352" stroke-miterlimit="10"/>
<path d="M8.58531 15.9546V0.000244141M0.0827287 7.97741H17.0879H0.0827287Z" stroke="#E3E3E3" stroke-width="2.352" stroke-miterlimit="10"/>
</svg>
