<svg width="174" height="133" viewBox="0 0 174 133" fill="none" xmlns="http://www.w3.org/2000/svg">
<path d="M165.463 93.9556V78.0013M156.961 85.9784H173.966H156.961Z" stroke="#E3E3E3" stroke-width="1.176" stroke-miterlimit="10"/>
<path d="M165.463 54.6834V38.7291M156.961 46.7062H173.966H156.961Z" stroke="#E3E3E3" stroke-width="1.176" stroke-miterlimit="10"/>
<path d="M165.463 16.6389V0.68457M156.961 8.66173H173.966H156.961Z" stroke="#E3E3E3" stroke-width="1.176" stroke-miterlimit="10"/>
<path d="M165.463 93.9556V78.0013M156.961 85.9784H173.966H156.961Z" stroke="#E3E3E3" stroke-width="2.352" stroke-miterlimit="10"/>
<path d="M165.463 54.6834V38.7291M156.961 46.7062H173.966H156.961Z" stroke="#E3E3E3" stroke-width="2.352" stroke-miterlimit="10"/>
<path d="M165.463 16.6389V0.68457M156.961 8.66173H173.966H156.961Z" stroke="#E3E3E3" stroke-width="2.352" stroke-miterlimit="10"/>
<path d="M126.22 93.9557V78.0014M117.717 85.9786H134.723H117.717Z" stroke="#E3E3E3" stroke-width="1.176" stroke-miterlimit="10"/>
<path d="M126.22 54.6835V38.7292M117.717 46.7064H134.723H117.717Z" stroke="#E3E3E3" stroke-width="1.176" stroke-miterlimit="10"/>
<path d="M126.22 16.639V0.684692M117.717 8.66186H134.723H117.717Z" stroke="#E3E3E3" stroke-width="1.176" stroke-miterlimit="10"/>
<path d="M126.22 93.9557V78.0014M117.717 85.9786H134.723H117.717Z" stroke="#E3E3E3" stroke-width="2.352" stroke-miterlimit="10"/>
<path d="M126.22 54.6835V38.7292M117.717 46.7064H134.723H117.717Z" stroke="#E3E3E3" stroke-width="2.352" stroke-miterlimit="10"/>
<path d="M126.22 16.639V0.684692M117.717 8.66186H134.723H117.717Z" stroke="#E3E3E3" stroke-width="2.352" stroke-miterlimit="10"/>
<path d="M86.9779 54.6836V38.7293M78.4753 46.7065H95.4805H78.4753Z" stroke="#E3E3E3" stroke-width="1.176" stroke-miterlimit="10"/>
<path d="M86.9779 16.6391V0.684814M78.4753 8.66198H95.4805H78.4753Z" stroke="#E3E3E3" stroke-width="1.176" stroke-miterlimit="10"/>
<path d="M86.9779 54.6836V38.7293M78.4753 46.7065H95.4805H78.4753Z" stroke="#E3E3E3" stroke-width="2.352" stroke-miterlimit="10"/>
<path d="M86.9779 16.6391V0.684814M78.4753 8.66198H95.4805H78.4753Z" stroke="#E3E3E3" stroke-width="2.352" stroke-miterlimit="10"/>
<path d="M47.7435 54.6836V38.7293M39.2409 46.7065H56.2461H39.2409Z" stroke="#E3E3E3" stroke-width="1.176" stroke-miterlimit="10"/>
<path d="M47.7435 16.6391V0.684814M39.2409 8.66198H56.2461H39.2409Z" stroke="#E3E3E3" stroke-width="1.176" stroke-miterlimit="10"/>
<path d="M47.7435 54.6836V38.7293M39.2409 46.7065H56.2461H39.2409Z" stroke="#E3E3E3" stroke-width="2.352" stroke-miterlimit="10"/>
<path d="M47.7435 16.6391V0.684814M39.2409 8.66198H56.2461H39.2409Z" stroke="#E3E3E3" stroke-width="2.352" stroke-miterlimit="10"/>
<path d="M8.50133 54.6836V38.7293M-0.00125563 46.7065H17.0039H-0.00125563Z" stroke="#E3E3E3" stroke-width="1.176" stroke-miterlimit="10"/>
<path d="M8.50133 16.6391V0.684814M-0.00125563 8.66198H17.0039H-0.00125563Z" stroke="#E3E3E3" stroke-width="1.176" stroke-miterlimit="10"/>
<path d="M8.50133 54.6836V38.7293M-0.00125563 46.7065H17.0039H-0.00125563Z" stroke="#E3E3E3" stroke-width="2.352" stroke-miterlimit="10"/>
<path d="M8.50133 16.6391V0.684814M-0.00125563 8.66198H17.0039H-0.00125563Z" stroke="#E3E3E3" stroke-width="2.352" stroke-miterlimit="10"/>
<path d="M165.463 132.513V116.559M156.961 124.536H173.966H156.961Z" stroke="#E3E3E3" stroke-width="1.176" stroke-miterlimit="10"/>
<path d="M165.463 93.241V77.2867M156.961 85.2638H173.966H156.961Z" stroke="#E3E3E3" stroke-width="1.176" stroke-miterlimit="10"/>
<path d="M165.463 55.1966V39.2422M156.961 47.2194H173.966H156.961Z" stroke="#E3E3E3" stroke-width="1.176" stroke-miterlimit="10"/>
<path d="M165.463 132.513V116.559M156.961 124.536H173.966H156.961Z" stroke="#E3E3E3" stroke-width="2.352" stroke-miterlimit="10"/>
<path d="M165.463 93.241V77.2867M156.961 85.2638H173.966H156.961Z" stroke="#E3E3E3" stroke-width="2.352" stroke-miterlimit="10"/>
<path d="M165.463 55.1966V39.2422M156.961 47.2194H173.966H156.961Z" stroke="#E3E3E3" stroke-width="2.352" stroke-miterlimit="10"/>
<path d="M126.22 132.513V116.559M117.717 124.536H134.723H117.717Z" stroke="#E3E3E3" stroke-width="1.176" stroke-miterlimit="10"/>
<path d="M126.22 93.241V77.2867M117.717 85.2638H134.723H117.717Z" stroke="#E3E3E3" stroke-width="1.176" stroke-miterlimit="10"/>
<path d="M126.22 55.1963V39.242M117.717 47.2192H134.723H117.717Z" stroke="#E3E3E3" stroke-width="1.176" stroke-miterlimit="10"/>
<path d="M126.22 132.513V116.559M117.717 124.536H134.723H117.717Z" stroke="#E3E3E3" stroke-width="2.352" stroke-miterlimit="10"/>
<path d="M126.22 93.241V77.2867M117.717 85.2638H134.723H117.717Z" stroke="#E3E3E3" stroke-width="2.352" stroke-miterlimit="10"/>
<path d="M126.22 55.1963V39.242M117.717 47.2192H134.723H117.717Z" stroke="#E3E3E3" stroke-width="2.352" stroke-miterlimit="10"/>
<path d="M86.9779 93.2409V77.2866M78.4753 85.2638H95.4805H78.4753Z" stroke="#E3E3E3" stroke-width="1.176" stroke-miterlimit="10"/>
<path d="M86.9779 55.1963V39.2419M78.4753 47.2191H95.4805H78.4753Z" stroke="#E3E3E3" stroke-width="1.176" stroke-miterlimit="10"/>
<path d="M86.9779 93.2409V77.2866M78.4753 85.2638H95.4805H78.4753Z" stroke="#E3E3E3" stroke-width="2.352" stroke-miterlimit="10"/>
<path d="M86.9779 55.1963V39.2419M78.4753 47.2191H95.4805H78.4753Z" stroke="#E3E3E3" stroke-width="2.352" stroke-miterlimit="10"/>
<path d="M47.7435 93.2409V77.2866M39.2409 85.2638H56.2461H39.2409Z" stroke="#E3E3E3" stroke-width="1.176" stroke-miterlimit="10"/>
<path d="M47.7435 55.1963V39.2419M39.2409 47.2191H56.2461H39.2409Z" stroke="#E3E3E3" stroke-width="1.176" stroke-miterlimit="10"/>
<path d="M47.7435 93.2409V77.2866M39.2409 85.2638H56.2461H39.2409Z" stroke="#E3E3E3" stroke-width="2.352" stroke-miterlimit="10"/>
<path d="M47.7435 55.1963V39.2419M39.2409 47.2191H56.2461H39.2409Z" stroke="#E3E3E3" stroke-width="2.352" stroke-miterlimit="10"/>
<path d="M8.50133 93.2409V77.2866M-0.00125563 85.2638H17.0039H-0.00125563Z" stroke="#E3E3E3" stroke-width="1.176" stroke-miterlimit="10"/>
<path d="M8.50133 55.1963V39.2419M-0.00125563 47.2191H17.0039H-0.00125563Z" stroke="#E3E3E3" stroke-width="1.176" stroke-miterlimit="10"/>
<path d="M8.50133 93.2409V77.2866M-0.00125563 85.2638H17.0039H-0.00125563Z" stroke="#E3E3E3" stroke-width="2.352" stroke-miterlimit="10"/>
<path d="M8.50133 55.1963V39.2419M-0.00125563 47.2191H17.0039H-0.00125563Z" stroke="#E3E3E3" stroke-width="2.352" stroke-miterlimit="10"/>
</svg>
