<svg width="40" height="123" viewBox="0 0 40 123" fill="none" xmlns="http://www.w3.org/2000/svg">
<g clip-path="url(#clip0_18_3895)">
<path d="M10 11.6667C10 9.89856 10.7024 8.20286 11.9526 6.95262C13.2029 5.70238 14.8986 5 16.6667 5H23.3333C25.1014 5 26.7971 5.70238 28.0474 6.95262C29.2976 8.20286 30 9.89856 30 11.6667V28.3333C30 30.1014 29.2976 31.7971 28.0474 33.0474C26.7971 34.2976 25.1014 35 23.3333 35H16.6667C14.8986 35 13.2029 34.2976 11.9526 33.0474C10.7024 31.7971 10 30.1014 10 28.3333V11.6667Z" stroke="#B21D1D" stroke-width="3.33333" stroke-linecap="round" stroke-linejoin="round"/>
<path d="M20 11.6667V18.3334" stroke="#B21D1D" stroke-width="3.33333" stroke-linecap="round" stroke-linejoin="round"/>
</g>
<path d="M19.0368 122.415L10.7265 115.58C10.4606 115.36 10.3276 115.086 10.3276 114.811C10.3276 114.537 10.4606 114.262 10.7265 114.043C11.2584 113.604 12.0894 113.604 12.6213 114.043L18.6711 119.011L18.6711 102.98C18.6711 102.376 19.2694 101.882 20.0007 101.882C20.732 101.882 21.3304 102.376 21.3304 102.98L21.3304 119.011L27.3802 114.043C27.9121 113.604 28.7431 113.604 29.2749 114.043C29.8068 114.482 29.8068 115.168 29.2749 115.607L20.9647 122.443C20.3996 122.854 19.5354 122.854 19.0368 122.415Z" fill="#DFDFDF"/>
<rect x="21.6621" y="56" width="65.8819" height="3.32352" rx="1.66176" transform="rotate(90 21.6621 56)" fill="#DFDFDF"/>
<defs>
<clipPath id="clip0_18_3895">
<rect width="40" height="40" fill="white"/>
</clipPath>
</defs>
</svg>
