<svg width="78" height="79" viewBox="0 0 78 79" fill="none" xmlns="http://www.w3.org/2000/svg">
<path d="M72.9728 21.4895C72.5897 19.9591 71.8096 18.5569 70.7112 17.4245C69.6128 16.2921 68.235 15.4696 66.7169 15.0401C61.1705 13.6858 38.9848 13.6858 38.9848 13.6858C38.9848 13.6858 16.7992 13.6858 11.2528 15.1691C9.73473 15.5986 8.35693 16.4211 7.25851 17.5535C6.16009 18.6859 5.37996 20.0881 4.99691 21.6185C3.98183 27.2473 3.4853 32.9574 3.51356 38.6769C3.47738 44.4395 3.97394 50.1932 4.99691 55.8644C5.41921 57.3472 6.21682 58.6961 7.31268 59.7807C8.40854 60.8652 9.7656 61.6488 11.2528 62.0557C16.7992 63.5391 38.9848 63.5391 38.9848 63.5391C38.9848 63.5391 61.1705 63.5391 66.7169 62.0557C68.235 61.6262 69.6128 60.8038 70.7112 59.6714C71.8096 58.539 72.5897 57.1368 72.9728 55.6064C73.98 50.02 74.4765 44.3534 74.4561 38.6769C74.4923 32.9143 73.9958 27.1607 72.9728 21.4895V21.4895Z" stroke="white" stroke-width="1.68243" stroke-linecap="round" stroke-linejoin="round"/>
<path d="M31.7285 49.2214L50.2703 38.6767L31.7285 28.1321V49.2214Z" stroke="white" stroke-width="1.68243" stroke-linecap="round" stroke-linejoin="round"/>
</svg>
