<svg width="20" height="14" viewBox="0 0 20 14" fill="none" xmlns="http://www.w3.org/2000/svg">
<path fill-rule="evenodd" clip-rule="evenodd" d="M8.05067 10.1629V4.42508L13.0194 7.29413L8.05067 10.1629ZM19.1264 2.69049C18.9064 1.86775 18.2584 1.2196 17.4355 0.999662C15.944 0.600098 9.96316 0.600098 9.96316 0.600098C9.96316 0.600098 3.98246 0.600098 2.49094 0.999662C1.66804 1.2196 1.02005 1.86775 0.800112 2.69049C0.400391 4.18216 0.400391 7.29398 0.400391 7.29398C0.400391 7.29398 0.400391 10.4059 0.800112 11.8975C1.02005 12.7202 1.66804 13.3685 2.49094 13.5883C3.98246 13.988 9.96316 13.988 9.96316 13.988C9.96316 13.988 15.944 13.988 17.4355 13.5883C18.2584 13.3685 18.9064 12.7202 19.1264 11.8975C19.5261 10.4059 19.5261 7.29398 19.5261 7.29398C19.5261 7.29398 19.5261 4.18216 19.1264 2.69049Z" fill="white"/>
</svg>
